# xmcd CD database file
#
# Track frame offsets:
#	150
#	16585
#	31732
#	46602
#	62385
#	80647
#	99440
#	115437
#	137227
#	155562
#	174182
#
# Disc length: 2615 seconds
#
# Revision: 0
# Processed by: cddbd v1.4PL0 Copyright (c) Steve Scherf et al.
# Submitted via: CDex 1.51
#
DISCID=790a350b
DTITLE=Sharkey Bonano - Live At The Perez Club (New Orleans, 1952)
DYEAR=1990
DGENRE=Jazz
TTITLE0=Bugle Call Rag
TTITLE1=Chinatown, My Chinatown
TTITLE2=Stick Out Your Can-1
TTITLE3=Royal Garden Blues
TTITLE4=Bourbon Street Parade
TTITLE5=Farewell Blues
TTITLE6=March Of The Bob Cats
TTITLE7=Muskrat Ramble
TTITLE8=Hindustan
TTITLE9=The Sheik Of Araby
TTITLE10=Tiger Rag
EXTD=YEAR: 1990
EXTT0=
EXTT1=
EXTT2=
EXTT3=
EXTT4=
EXTT5=
EXTT6=
EXTT7=
EXTT8=
EXTT9=
EXTT10=
PLAYORDER=
